<?xml version="1.0" standalone="no"?>
<!DOCTYPE svg PUBLIC "-//W3C//DTD SVG 20010904//EN"
 "http://www.w3.org/TR/2001/REC-SVG-20010904/DTD/svg10.dtd">
<svg version="1.0" xmlns="http://www.w3.org/2000/svg"
 width="512.000000pt" height="512.000000pt" viewBox="0 0 512.000000 512.000000"
 preserveAspectRatio="xMidYMid meet">
<metadata>
Created by potrace 1.11, written by Peter Selinger 2001-2013
</metadata>
<g transform="translate(0.000000,512.000000) scale(0.100000,-0.100000)"
fill="#000000" stroke="none">
<path d="M986 4518 c-14 -384 -18 -704 -11 -910 l7 -218 124 0 124 0 0 468 c0
258 -3 551 -7 650 l-6 182 -112 0 -112 0 -7 -172z"/>
<path d="M2847 4503 c-4 -104 -7 -396 -7 -651 l0 -463 128 3 127 3 3 395 c2
217 0 509 -3 648 l-7 252 -118 0 -117 0 -6 -187z"/>
<path d="M447 4443 c-4 -3 -7 -242 -7 -530 l0 -523 130 0 130 0 0 524 0 523
-46 7 c-61 8 -199 8 -207 -1z"/>
<path d="M1809 4443 l-37 -4 -7 -312 c-3 -172 -5 -406 -3 -522 l3 -210 133 -3
132 -3 0 524 0 524 -61 7 c-62 6 -93 6 -160 -1z"/>
<path d="M3670 4442 l-35 -7 0 -520 0 -520 130 0 130 0 3 514 c1 283 -2 519
-6 523 -12 12 -177 19 -222 10z"/>
<path d="M4171 4436 c-8 -9 -10 -156 -9 -527 l3 -514 133 -3 132 -3 0 524 0
524 -46 7 c-84 11 -201 7 -213 -8z"/>
<path d="M2300 3915 l0 -525 129 0 129 0 6 31 c8 41 8 898 0 967 l-7 52 -128
0 -129 0 0 -525z"/>
<path d="M1372 2837 l-22 -23 0 -1140 c0 -626 3 -1156 6 -1177 4 -23 15 -42
27 -49 15 -8 359 -11 1185 -11 l1163 0 22 22 22 22 3 1162 4 1162 -22 28 -21
27 -1173 0 -1173 0 -21 -23z m2266 -1189 l-3 -1073 -1070 0 -1070 0 -3 1073
-2 1072 1075 0 1075 0 -2 -1072z"/>
<path d="M3135 2385 l-25 -24 0 -774 c0 -768 0 -775 21 -801 20 -26 23 -26
143 -26 112 0 125 2 142 21 18 20 19 48 19 806 l0 785 -24 19 c-20 16 -40 19
-138 19 -108 0 -115 -1 -138 -25z"/>
<path d="M1640 2380 c-24 -24 -26 -57 -4 -88 l15 -22 639 0 639 0 20 27 c24
30 20 58 -11 86 -19 16 -65 17 -649 17 -616 0 -629 0 -649 -20z"/>
<path d="M1622 2057 c-28 -29 -28 -68 -1 -93 19 -17 46 -19 364 -22 358 -5
425 -1 450 24 21 22 19 70 -5 94 -19 19 -33 20 -403 20 l-384 0 -21 -23z"/>
<path d="M2214 1759 c-18 -20 -19 -43 -19 -491 0 -453 1 -470 19 -484 27 -20
278 -20 295 -1 7 10 12 157 13 484 3 451 2 472 -16 492 -18 19 -30 21 -146 21
-116 0 -128 -2 -146 -21z"/>
<path d="M1708 1433 c-16 -18 -18 -49 -18 -334 0 -232 3 -318 12 -327 13 -13
271 -18 302 -6 14 5 16 44 16 334 0 221 -3 331 -11 335 -5 4 -72 9 -147 12
-127 5 -138 4 -154 -14z"/>
<path d="M2712 1260 l-22 -9 2 -233 3 -233 160 0 160 0 2 225 c2 124 -1 231
-6 238 -10 17 -264 27 -299 12z"/>
</g>
</svg>
